<svg width="98" height="56" viewBox="0 0 98 56" fill="none" xmlns="http://www.w3.org/2000/svg">
<g clip-path="url(#clip0_1_5)">
<path fill-rule="evenodd" clip-rule="evenodd" d="M63.5203 37.2131C65.4074 32.7176 70.6244 9.21309 75.6472 10.0456C77.451 10.5174 76.5075 12.8484 76.0635 14.0139C73.6769 16.5114 73.2607 20.4242 72.2617 23.6432C70.5134 28.444 68.9316 33.3003 67.5719 38.2121C66.9336 39.5996 65.9069 45.0109 63.9643 44.2062C57.7205 42.1526 56.0555 27.7225 54.9455 21.9505C53.4747 27.334 52.1705 32.6898 50.9217 38.0734C49.8672 40.5431 49.451 43.2072 48.9792 45.8157C48.9237 47.5917 47.2309 48.6185 45.6214 47.8692C42.9019 45.6769 46.7869 38.9336 47.1754 35.9366C49.3122 28.1388 51.3657 20.3132 53.669 12.5431C54.0852 11.4054 55.4728 11.4886 56.4718 11.4054C56.9158 11.4331 57.332 11.9881 57.665 12.2656C58.5253 12.6541 58.6363 13.3479 58.5808 14.1804C59.4688 21.9227 59.6908 30.0813 63.3261 37.2131C63.4093 37.2409 63.4648 37.2409 63.5203 37.2131Z" fill="white"/>
<path fill-rule="evenodd" clip-rule="evenodd" d="M10.1843 23.4212C8.21407 31.1636 6.21605 38.7949 4.38454 46.5094C4.49554 48.4797 2.80277 50.1725 0.860253 49.118C-1.63727 46.7315 2.08126 40.2656 2.52527 37.1854C4.66204 29.3875 6.71556 21.562 9.01883 13.7919C9.43508 12.6541 10.8781 12.8484 11.8494 12.6819C12.3489 12.7096 12.7929 13.4034 13.1814 13.6809C13.8474 13.9861 13.9306 14.5134 13.9029 15.1794C14.6521 23.0605 15.1794 31.1358 18.4817 38.5451C18.5649 38.5451 18.6482 38.5174 18.7314 38.5174C21.0347 33.6611 25.447 10.9614 30.9138 11.3499C32.773 11.7939 31.774 14.0139 31.441 15.2627C28.999 17.7324 28.555 21.7285 27.556 24.9752C25.8355 29.776 24.226 34.6323 22.8662 39.5441C22.2002 40.9316 21.2012 46.3429 19.2309 45.4827C13.0704 43.4569 11.3498 29.0823 10.2676 23.4212C10.2398 23.4212 10.2121 23.4212 10.1843 23.4212Z" fill="white"/>
<path fill-rule="evenodd" clip-rule="evenodd" d="M89.4113 29.4985C86.6918 30.3588 84.1943 31.1635 81.4747 31.885C79.5877 32.329 78.6165 35.1318 77.6452 36.7136C78.5332 37.5183 79.005 37.2408 78.45 38.6006C77.7285 41.2091 76.4242 44.8722 73.0387 44.0674C72.5392 44.0119 72.1507 43.1794 72.1507 42.4024C72.1229 38.4341 74.7592 35.3261 76.3132 31.8573C73.2607 30.9415 75.2032 26.6125 78.117 27.556C78.6997 27.778 78.9495 27.6392 79.2825 27.112C82.0853 23.1715 84.6105 19.0922 87.0525 14.9296C87.8018 13.8474 87.8018 12.5431 88.1348 11.4053C88.7176 11.1833 88.7176 10.5451 89.1061 10.1843C89.7166 9.68483 90.5213 9.21307 91.3538 9.40732C95.2389 8.99107 92.6026 21.0624 92.9634 23.6155C93.1021 24.7255 95.1556 23.6432 95.9881 23.9762C99.7622 24.4757 96.3766 27.9722 94.1566 27.8612C92.7136 28.0277 94.3786 31.7463 94.3509 32.8285C94.4064 35.7146 99.0684 40.9871 97.6531 42.6799C94.2399 47.5084 89.4946 31.9128 89.4113 29.4985ZM88.8286 19.9247L88.5788 19.8414C87.1635 22.0614 85.7483 24.2815 84.333 26.5015C90.5768 25.5857 88.5233 25.3082 88.8286 19.9247Z" fill="white"/>
<path fill-rule="evenodd" clip-rule="evenodd" d="M43.9842 7.63132C49.8117 7.77007 44.2617 16.3449 44.0119 19.5084C42.3746 25.3637 40.2934 31.1635 37.8791 36.7413C37.0466 38.5451 33.6611 49.7007 31.2745 44.5947C32.7453 37.4906 35.4648 30.4143 37.6848 23.4767C38.4341 20.8127 39.2111 18.1209 40.0159 15.4569C40.4044 13.4866 41.9306 11.5996 41.2646 9.57384C40.5431 7.79782 42.8186 7.88107 43.9842 7.63132Z" fill="white"/>
<path fill-rule="evenodd" clip-rule="evenodd" d="M26.8623 53.0862C26.8623 49.5897 31.4411 48.2299 32.9396 51.56C33.6611 52.6977 32.3291 54.002 31.7741 54.9733C30.1645 57.3043 26.7513 55.1953 26.8623 53.0862Z" fill="white"/>
<path d="M12.5709 3.30227C12.4876 3.30227 12.4044 3.27452 12.3489 3.21902C12.2934 3.16352 12.2656 3.10802 12.2379 3.02477C12.2101 2.96926 12.2101 2.88601 12.2101 2.77501C12.2101 2.69176 12.2101 2.58076 12.2379 2.49751C12.2656 2.24776 12.2379 2.08126 12.1269 1.99801C12.0159 1.91476 11.8494 1.88701 11.6274 1.88701C11.5719 1.88701 11.4886 1.887 11.4053 1.91476C11.3221 1.91476 11.2388 1.94251 11.1833 1.97026C11.1001 1.99801 11.0446 2.05351 10.9891 2.10901C10.9336 2.16451 10.8781 2.24776 10.8781 2.33101C10.8503 2.52526 10.8781 2.71951 10.9613 2.85826C11.0723 3.02477 11.1833 3.16352 11.3498 3.30227C11.5164 3.44102 11.7106 3.57977 11.9049 3.74627C12.0991 3.88502 12.2934 4.07928 12.4321 4.27353C12.5986 4.46778 12.7096 4.71753 12.7929 4.96728C12.8761 5.24479 12.8761 5.55004 12.7929 5.93854C12.7374 6.16054 12.6819 6.38255 12.5709 6.5768C12.4599 6.77105 12.3211 6.9653 12.1546 7.1318C11.9881 7.29831 11.8216 7.40931 11.6274 7.52031C11.4331 7.63131 11.2388 7.65906 11.0168 7.68681H10.7393C10.6283 7.68681 10.5173 7.68681 10.4063 7.68681C10.2953 7.68681 10.1843 7.68681 10.0733 7.68681C9.87909 7.68681 9.68483 7.63131 9.51833 7.54806C9.35183 7.46481 9.24083 7.35381 9.15758 7.1873C9.07433 7.04855 8.99108 6.8543 8.96333 6.66005C8.93558 6.4658 8.93558 6.2438 8.99108 6.02179C9.01883 5.91079 9.04658 5.79979 9.07433 5.68879C9.10208 5.57779 9.15758 5.43904 9.18533 5.32804C9.24083 5.21704 9.29633 5.13379 9.37958 5.05053C9.46283 4.96728 9.57383 4.93953 9.68483 4.93953C9.79583 4.93953 9.87909 4.96728 9.96234 4.99503C10.0178 5.05053 10.0733 5.10603 10.1011 5.16154C10.1288 5.24479 10.1566 5.32804 10.1566 5.41129C10.1566 5.49454 10.1566 5.60554 10.1288 5.71654C10.1011 5.85529 10.1288 5.96629 10.1566 6.04954C10.1843 6.13279 10.2398 6.18829 10.2953 6.2438C10.3508 6.2993 10.4341 6.32705 10.5173 6.3548C10.6006 6.38255 10.7116 6.38255 10.8226 6.38255C10.9058 6.38255 10.9891 6.38255 11.0723 6.3548C11.1556 6.32705 11.2388 6.32705 11.3498 6.27155C11.4331 6.2438 11.5164 6.18829 11.5719 6.10504C11.6274 6.04954 11.6829 5.93854 11.7106 5.82754C11.7384 5.63329 11.7106 5.46679 11.6274 5.30029C11.5164 5.16154 11.4053 5.02278 11.2111 4.88403C11.0446 4.74528 10.8503 4.60653 10.6561 4.46778C10.4618 4.32903 10.2676 4.13478 10.1288 3.94052C9.96234 3.74627 9.85134 3.49652 9.76808 3.24677C9.68483 2.96926 9.68483 2.66401 9.76808 2.27551C9.82358 2.05351 9.87909 1.85925 9.99009 1.665C10.1011 1.47075 10.2121 1.30425 10.3786 1.13775C10.5173 0.998997 10.7116 0.860245 10.8781 0.776995C11.0723 0.693744 11.2666 0.638243 11.4608 0.610493C11.7106 0.582743 11.9326 0.582743 12.1824 0.554993C12.4044 0.554993 12.5986 0.582743 12.7651 0.665994C12.9316 0.749244 13.0704 0.860245 13.1536 0.998997C13.2369 1.221 13.3201 1.3875 13.3479 1.6095C13.3756 1.80375 13.3756 2.02576 13.3201 2.27551C13.2924 2.38651 13.2646 2.49751 13.2369 2.60851C13.2091 2.71951 13.1536 2.83051 13.0981 2.94151C13.0426 3.05252 12.9871 3.13577 12.8761 3.19127C12.7929 3.24677 12.7096 3.30227 12.5709 3.30227Z" fill="white"/>
<path d="M10.2953 7.82557C10.2121 7.82557 10.1288 7.82557 10.0456 7.82557C9.82358 7.82557 9.62933 7.77007 9.46283 7.68682C9.29633 7.60357 9.15758 7.46482 9.07433 7.29832C8.96333 7.13181 8.90783 6.96531 8.88007 6.74331C8.85232 6.54906 8.85232 6.32706 8.90782 6.0773C8.93558 5.9663 8.96333 5.8553 8.99108 5.7443C9.01883 5.60555 9.07433 5.49455 9.12983 5.38355C9.18533 5.27255 9.26858 5.16155 9.35183 5.07829C9.46283 4.99504 9.57383 4.93954 9.71258 4.93954C9.85133 4.93954 9.96233 4.96729 10.0178 5.02279C10.1011 5.07829 10.1566 5.1338 10.1843 5.21705C10.2121 5.3003 10.2398 5.38355 10.2398 5.49455C10.2398 5.60555 10.2398 5.71655 10.2121 5.82755C10.2121 5.93855 10.2121 6.04955 10.2398 6.10505C10.2676 6.18831 10.2953 6.21606 10.3508 6.27156C10.4063 6.29931 10.4618 6.32706 10.5451 6.35481C10.6283 6.38256 10.7116 6.38256 10.8226 6.38256C10.9058 6.38256 10.9891 6.38256 11.0723 6.35481C11.1556 6.35481 11.2388 6.32706 11.3221 6.29931C11.4053 6.27156 11.4608 6.21606 11.5163 6.16056C11.5718 6.10505 11.5996 6.0218 11.6274 5.93855C11.6551 5.77205 11.6274 5.60555 11.5441 5.49455C11.4608 5.3558 11.3221 5.21705 11.1556 5.07829C10.9891 4.93954 10.7948 4.80079 10.6006 4.66204C10.4063 4.52329 10.2121 4.32904 10.0456 4.13479C9.87908 3.94053 9.76808 3.69078 9.68483 3.41328C9.60158 3.13578 9.60158 2.80277 9.68483 2.38652C9.74033 2.16452 9.79583 1.94252 9.90683 1.74826C10.0178 1.55401 10.1566 1.35976 10.2953 1.19326C10.4618 1.02676 10.6283 0.915756 10.8226 0.804755C11.0168 0.693754 11.2111 0.638253 11.4331 0.638253C11.6829 0.555002 11.9326 0.527252 12.1546 0.527252C12.3766 0.527252 12.5986 0.555002 12.7929 0.638253C12.9594 0.721504 13.1259 0.860255 13.2091 1.02676C13.3201 1.19326 13.3756 1.38751 13.4034 1.58176C13.4311 1.80376 13.4311 2.02577 13.3756 2.27552C13.3479 2.38652 13.3201 2.49752 13.2924 2.60852C13.2646 2.71952 13.2091 2.85827 13.1536 2.94152C13.0981 3.05253 13.0149 3.13578 12.9316 3.21903C12.8206 3.30228 12.7096 3.33003 12.5709 3.35778C12.4599 3.35778 12.3489 3.33003 12.2934 3.27453C12.2379 3.21903 12.1824 3.13578 12.1546 3.05253C12.1269 2.96928 12.1269 2.88602 12.1269 2.77502C12.1269 2.69177 12.1269 2.58077 12.1546 2.49752C12.1824 2.35877 12.1824 2.16452 12.0714 2.08127C11.9604 2.02577 11.8216 1.99802 11.6274 1.99802C11.5719 1.99802 11.5163 1.99802 11.4331 2.02577C11.3498 2.02577 11.2943 2.05352 11.2111 2.08127C11.1556 2.10902 11.0723 2.13677 11.0168 2.19227C10.9613 2.24777 10.9336 2.27552 10.9336 2.35877C10.9058 2.55302 10.9336 2.69177 11.0168 2.83052C11.1001 2.96927 11.2388 3.10803 11.4053 3.24678C11.5718 3.38553 11.7384 3.52428 11.9604 3.69078C12.1546 3.85728 12.3489 4.02378 12.5154 4.21804C12.6819 4.41229 12.7929 4.66204 12.8761 4.93954C12.9594 5.21705 12.9594 5.55005 12.8761 5.93855C12.8206 6.16055 12.7374 6.41031 12.6264 6.60456C12.5154 6.82656 12.3766 7.02081 12.2101 7.18731C12.0436 7.35382 11.8494 7.49257 11.6551 7.60357C11.4608 7.71457 11.2388 7.77007 11.0168 7.77007L10.4341 7.79782C10.3786 7.82557 10.3508 7.82557 10.2953 7.82557ZM9.74033 5.07829C9.60158 5.07829 9.51833 5.10605 9.46283 5.1893C9.37958 5.2448 9.32408 5.3558 9.26858 5.43905C9.21308 5.55005 9.18533 5.66105 9.15758 5.77205C9.12983 5.88305 9.10208 5.99405 9.07433 6.10505C9.01883 6.32706 9.01883 6.52131 9.04658 6.71556C9.07433 6.90981 9.12983 7.07631 9.21308 7.21507C9.29633 7.35382 9.40733 7.46482 9.54608 7.54807C9.68483 7.63132 9.85133 7.65907 10.0456 7.68682C10.1566 7.68682 10.2676 7.68682 10.3508 7.68682L10.9336 7.65907C11.1278 7.65907 11.3221 7.60357 11.5163 7.52032C11.7106 7.43707 11.8771 7.29832 12.0159 7.15956C12.1546 6.99306 12.2934 6.82656 12.4044 6.63231C12.5154 6.43806 12.5709 6.21606 12.6264 5.99405C12.7096 5.6333 12.7096 5.32805 12.6264 5.05054C12.5431 4.80079 12.4321 4.57879 12.2934 4.38454C12.1546 4.19029 11.9604 4.02379 11.7661 3.88503C11.5719 3.71853 11.3776 3.57978 11.2111 3.44103C11.0446 3.30228 10.9058 3.13578 10.7948 2.96927C10.6838 2.80277 10.6561 2.60852 10.6838 2.35877C10.7948 2.22002 10.8226 2.13677 10.9058 2.08127C10.9613 2.02577 11.0446 1.97027 11.1278 1.94252C11.2111 1.91477 11.2943 1.88701 11.3776 1.85926C11.4608 1.85926 11.5441 1.83151 11.5996 1.83151C11.8216 1.83151 12.0159 1.85926 12.1269 1.94252C12.2656 2.02577 12.3211 2.22002 12.2934 2.52527C12.2934 2.60852 12.2656 2.69177 12.2656 2.77502C12.2656 2.85827 12.2656 2.94152 12.2934 2.99703C12.3211 3.05253 12.3489 3.10803 12.3766 3.13578C12.4044 3.16353 12.4599 3.19128 12.5431 3.19128C12.6541 3.19128 12.7374 3.16353 12.8206 3.10803C12.9039 3.05253 12.9594 2.96927 13.0149 2.88602C13.0704 2.80277 13.0981 2.69177 13.1259 2.58077C13.1536 2.46977 13.1814 2.35877 13.2091 2.24777C13.2646 2.02577 13.2646 1.80376 13.2369 1.60951C13.2091 1.41526 13.1536 1.24876 13.0704 1.11001C12.9871 0.971256 12.8484 0.860255 12.7096 0.804755C12.5431 0.721504 12.3766 0.693754 12.1546 0.693754C11.9326 0.693754 11.6829 0.721504 11.4331 0.749254C11.2388 0.777005 11.0446 0.832505 10.8781 0.915756C10.7116 0.999007 10.5451 1.13776 10.4063 1.27651C10.2676 1.41526 10.1288 1.58176 10.0456 1.77601C9.93458 1.97027 9.87908 2.16452 9.82358 2.38652C9.74033 2.74727 9.74033 3.08028 9.82358 3.33003C9.90683 3.57978 10.0178 3.80178 10.1566 3.99603C10.2953 4.19029 10.4896 4.35679 10.6838 4.49554C10.8781 4.63429 11.0723 4.80079 11.2388 4.93954C11.4053 5.07829 11.5441 5.2448 11.6551 5.38355C11.7661 5.55005 11.7939 5.7443 11.7661 5.9663C11.7384 6.10505 11.6829 6.18831 11.5996 6.27156C11.5163 6.35481 11.4331 6.41031 11.3498 6.43806C11.2666 6.46581 11.1556 6.49356 11.0723 6.52131C10.9891 6.54906 10.8781 6.54906 10.8226 6.54906C10.7116 6.54906 10.6006 6.54906 10.4896 6.52131C10.3786 6.49356 10.2953 6.46581 10.2398 6.41031C10.1566 6.35481 10.1011 6.27156 10.0733 6.1883C10.0456 6.10505 10.0178 5.9663 10.0456 5.82755C10.0733 5.71655 10.0733 5.6333 10.0733 5.5223C10.0733 5.43905 10.0456 5.3558 10.0456 5.3003C10.0178 5.2448 9.99009 5.1893 9.93458 5.16155C9.87908 5.10605 9.82358 5.07829 9.74033 5.07829Z" fill="white"/>
<path d="M15.6512 0.582762C15.7622 0.582762 15.8454 0.610513 15.9009 0.638263C15.9564 0.693763 16.0119 0.749264 16.0397 0.804765C16.0674 0.888015 16.0952 0.971266 16.0952 1.08227C16.0952 1.16552 16.0952 1.27652 16.0674 1.38752L15.1794 5.93856C15.1517 6.02181 15.1794 6.10506 15.2072 6.16056C15.2627 6.21606 15.3182 6.24381 15.3737 6.27156C15.4569 6.29931 15.5124 6.29931 15.5957 6.29931C15.6789 6.29931 15.7622 6.29931 15.8177 6.29931H15.8732H15.9842C16.0674 6.29931 16.1229 6.29931 16.2062 6.27156C16.2894 6.27156 16.3727 6.24381 16.4559 6.21606C16.5392 6.18831 16.5947 6.13281 16.6502 6.07731C16.7057 6.02181 16.7334 5.96631 16.7612 5.85531L17.6492 1.30427C17.6769 1.22102 17.7047 1.13777 17.7324 1.02677C17.7602 0.943516 17.8157 0.832515 17.8712 0.777014C17.9267 0.693763 17.9822 0.638263 18.0654 0.582762C18.1487 0.527262 18.2319 0.499512 18.3152 0.499512C18.5372 0.499512 18.6759 0.555012 18.7314 0.721514C18.7869 0.860265 18.7869 1.05452 18.7592 1.30427L17.8712 5.85531C17.8157 6.07731 17.7602 6.29931 17.6492 6.49357C17.5382 6.68782 17.3994 6.88207 17.2607 7.02082C17.0942 7.18732 16.9277 7.29832 16.7334 7.40933C16.5392 7.49258 16.3449 7.54808 16.1229 7.57583L15.1517 7.60358C14.9297 7.60358 14.7632 7.57583 14.5966 7.49258C14.4301 7.40933 14.3191 7.29832 14.2081 7.13182C14.1249 6.99307 14.0416 6.79882 14.0139 6.60457C13.9861 6.41032 13.9861 6.18831 14.0416 5.96631L14.9852 1.41527C15.0129 1.33202 15.0407 1.24877 15.0684 1.13777C15.0962 1.05452 15.1517 0.943516 15.2072 0.888015C15.2627 0.804765 15.3182 0.749264 15.4014 0.693764C15.4569 0.610513 15.5402 0.582762 15.6512 0.582762Z" fill="white"/>
<path d="M15.1516 7.65906C14.9574 7.65906 14.7631 7.60356 14.5966 7.52031C14.4301 7.43706 14.2914 7.29831 14.1804 7.13181C14.0694 6.96531 14.0139 6.79881 13.9861 6.5768C13.9584 6.38255 13.9584 6.16055 14.0139 5.9108L14.9019 1.35976C14.9296 1.2765 14.9574 1.1655 14.9851 1.08225C15.0129 0.971252 15.0684 0.888001 15.1239 0.80475C15.1794 0.7215 15.2626 0.638249 15.3459 0.582748C15.4291 0.554998 15.5401 0.499498 15.6511 0.499498C15.7899 0.499498 15.8731 0.527248 15.9564 0.582748C16.0396 0.638249 16.0951 0.693749 16.1229 0.80475C16.1506 0.888001 16.1784 0.971252 16.1784 1.08225C16.1784 1.19325 16.1784 1.30425 16.1506 1.41526L15.2626 5.93855C15.2626 5.99405 15.2626 6.04955 15.2904 6.0773C15.3181 6.10505 15.3736 6.1328 15.4291 6.16055C15.4846 6.1883 15.5679 6.1883 15.6234 6.1883C15.7066 6.1883 15.7899 6.1883 15.8454 6.1883H16.0119C16.0674 6.1883 16.1506 6.1883 16.2339 6.16055C16.3171 6.16055 16.3726 6.1328 16.4559 6.10505C16.5114 6.0773 16.5669 6.04955 16.6224 5.99405C16.6779 5.93855 16.7056 5.9108 16.7056 5.82755L17.5937 1.2765C17.6214 1.19325 17.6492 1.08225 17.6769 0.999002C17.7047 0.888001 17.7602 0.80475 17.8157 0.7215C17.8712 0.638249 17.9544 0.554998 18.0377 0.499498C18.1209 0.443997 18.2319 0.388497 18.3429 0.388497C18.6759 0.360746 18.7869 0.527248 18.8424 0.665999C18.8979 0.832501 18.8979 1.0545 18.8702 1.2765L17.9822 5.82755C17.9267 6.04955 17.8712 6.27155 17.7324 6.49355C17.6214 6.71555 17.4827 6.88206 17.3162 7.04856C17.1497 7.21506 16.9832 7.35381 16.7889 7.43706C16.5946 7.54806 16.3726 7.60356 16.1506 7.60356L15.1794 7.63131C15.1794 7.65906 15.1516 7.65906 15.1516 7.65906ZM15.6789 0.665999C15.6511 0.665999 15.6511 0.665999 15.6789 0.665999C15.5679 0.665999 15.5124 0.693749 15.4569 0.74925C15.4014 0.80475 15.3181 0.860251 15.2904 0.943502C15.2349 1.02675 15.2071 1.11 15.1516 1.19325C15.1239 1.2765 15.0961 1.35976 15.0684 1.44301L14.1804 5.99405C14.1526 6.21605 14.1249 6.4103 14.1526 6.60455C14.1804 6.7988 14.2359 6.96531 14.3191 7.10406C14.4024 7.24281 14.5134 7.35381 14.6521 7.43706C14.7909 7.52031 14.9574 7.54806 15.1516 7.54806L16.1229 7.52031C16.3171 7.52031 16.5114 7.46481 16.6779 7.38156C16.8444 7.29831 17.0387 7.15956 17.1774 7.02081C17.3162 6.88206 17.4549 6.6878 17.5659 6.49355C17.6769 6.2993 17.7324 6.10505 17.7879 5.88305L18.6759 1.33201C18.7314 1.11 18.7037 0.943502 18.6759 0.80475C18.6482 0.7215 18.5927 0.638249 18.3429 0.638249C18.2597 0.638249 18.2042 0.665999 18.1487 0.7215C18.0932 0.777 18.0099 0.832501 17.9822 0.915751C17.9267 0.999002 17.8989 1.08225 17.8434 1.1655C17.8157 1.24875 17.7879 1.33201 17.7602 1.41526L16.8721 5.9663C16.8444 6.0773 16.8166 6.16055 16.7334 6.21605C16.6779 6.27155 16.5946 6.32705 16.5114 6.3548C16.4281 6.38255 16.3449 6.4103 16.2339 6.4103C16.1506 6.4103 16.0674 6.4103 15.9841 6.43805H15.8176C15.7621 6.43805 15.6789 6.43805 15.5956 6.43805C15.5124 6.43805 15.4291 6.4103 15.3459 6.38255C15.2626 6.3548 15.1794 6.2993 15.1516 6.2438C15.0961 6.16055 15.0684 6.0773 15.0961 5.9663L15.9841 1.41526C16.0119 1.30425 16.0119 1.221 16.0119 1.11C16.0119 1.02675 15.9841 0.943502 15.9841 0.888001C15.9564 0.832501 15.9286 0.777 15.8731 0.74925C15.8176 0.693749 15.7344 0.665999 15.6789 0.665999Z" fill="white"/>
<path d="M22.4777 0.388489C22.5609 0.388489 22.6442 0.388489 22.7274 0.388489C22.8107 0.388489 22.894 0.388489 22.9772 0.388489C23.1715 0.388489 23.3657 0.443989 23.5045 0.52724C23.6432 0.610491 23.782 0.749242 23.8652 0.887993C23.9485 1.0545 24.004 1.221 24.0317 1.41525C24.0595 1.6095 24.0595 1.8315 24.004 2.0535C23.9762 2.27551 23.9207 2.46976 23.893 2.66401C23.8375 2.85826 23.8097 3.08026 23.7542 3.27452C23.6987 3.49652 23.6155 3.69077 23.5045 3.88502C23.3935 4.07927 23.2547 4.24577 23.0882 4.38453C22.9217 4.52328 22.7552 4.63428 22.5609 4.71753C22.3667 4.80078 22.1724 4.82853 21.9782 4.85628L21.2289 4.88403C21.1734 4.88403 21.1457 4.88403 21.0624 4.91178C21.0069 4.91178 20.9514 4.93953 20.8959 4.96728C20.8404 4.99503 20.7849 5.02278 20.7294 5.07828C20.6739 5.10603 20.6462 5.16153 20.6462 5.24478L20.3964 6.5768C20.3687 6.66005 20.3409 6.7433 20.3132 6.8543C20.2854 6.93755 20.2299 7.04855 20.1744 7.1318C20.1189 7.21505 20.0634 7.27055 19.9802 7.32605C19.8969 7.38155 19.8137 7.4093 19.7304 7.4093C19.6194 7.4093 19.5362 7.38155 19.4529 7.3538C19.3974 7.32605 19.3419 7.27055 19.3142 7.1873C19.2864 7.10405 19.2587 7.0208 19.2587 6.93755C19.2587 6.82655 19.2587 6.7433 19.2864 6.6323L20.3132 1.30425C20.3409 1.221 20.3687 1.13775 20.3964 1.02674C20.4242 0.943494 20.4797 0.832493 20.5352 0.776992C20.5907 0.693742 20.6462 0.638241 20.7294 0.582741C20.8127 0.52724 20.8959 0.49949 20.9792 0.49949L22.4777 0.388489ZM21.0069 3.35777C20.9792 3.44102 21.0069 3.49652 21.0347 3.52427C21.0624 3.55202 21.1179 3.60752 21.1734 3.60752C21.2289 3.63527 21.2844 3.63527 21.3677 3.63527C21.4232 3.63527 21.5064 3.63527 21.5342 3.63527C21.5897 3.63527 21.6729 3.63527 21.7839 3.63527C21.8949 3.63527 21.9782 3.60752 22.0892 3.60752C22.2002 3.60752 22.2834 3.57977 22.3667 3.55202C22.4499 3.52427 22.5054 3.49652 22.5332 3.46877C22.5609 3.44102 22.5609 3.41327 22.5887 3.41327C22.5887 3.38552 22.6164 3.38552 22.6164 3.35777V3.38552C22.7274 2.94151 22.8384 2.49751 22.9217 2.08125C22.9495 1.97025 22.9217 1.887 22.894 1.8315C22.8662 1.776 22.8107 1.7205 22.7274 1.69275C22.6442 1.69275 22.5609 1.69275 22.4777 1.665C22.3944 1.665 22.3112 1.665 22.2557 1.665H21.8394C21.7839 1.665 21.7284 1.665 21.6729 1.69275C21.6174 1.69275 21.5619 1.7205 21.5064 1.74825C21.4509 1.776 21.3954 1.80375 21.3399 1.85925C21.2844 1.887 21.2567 1.9425 21.2567 2.02575L21.0069 3.35777Z" fill="white"/>
<path d="M19.7027 7.46483C19.5917 7.46483 19.4807 7.43708 19.4252 7.40933C19.3419 7.35383 19.2864 7.29833 19.2309 7.21508C19.2032 7.13183 19.1754 7.02083 19.1754 6.93758C19.1754 6.82658 19.1754 6.71558 19.2032 6.60458L20.2577 1.24878C20.2854 1.16553 20.3132 1.05452 20.3409 0.971274C20.3687 0.860272 20.4242 0.777022 20.4797 0.693771C20.5352 0.61052 20.6184 0.527269 20.7017 0.471769C20.7849 0.416268 20.8959 0.360768 21.0069 0.360768L22.4777 0.305267C22.5609 0.305267 22.6442 0.305267 22.7274 0.305267C22.8107 0.305267 22.894 0.305267 22.9772 0.305267C23.1992 0.305267 23.3935 0.360768 23.56 0.471769C23.7265 0.58277 23.8652 0.693771 23.9485 0.860272C24.0317 1.02677 24.115 1.22103 24.1427 1.41528C24.1427 1.63728 24.1427 1.85928 24.0872 2.08128C24.0595 2.30329 24.004 2.49754 23.9485 2.69179C23.893 2.88604 23.8652 3.10804 23.8097 3.30229C23.7542 3.5243 23.671 3.7463 23.56 3.94055C23.449 4.1348 23.2825 4.3013 23.1437 4.44006C22.9772 4.57881 22.7829 4.68981 22.5887 4.77306C22.3944 4.85631 22.1724 4.91181 21.9782 4.91181L21.2289 4.93956C21.1734 4.93956 21.1457 4.93956 21.0902 4.96731C21.0347 4.96731 20.9792 4.99506 20.9237 5.02281C20.8682 5.05056 20.8404 5.07831 20.7849 5.10606C20.7572 5.13381 20.7294 5.16156 20.7294 5.21706L20.4797 6.54908C20.4519 6.63233 20.4242 6.74333 20.3964 6.82658C20.3687 6.93758 20.3132 7.02083 20.2577 7.10408C20.2022 7.18733 20.1189 7.27058 20.0357 7.32608C19.9524 7.40933 19.8414 7.46483 19.7027 7.46483ZM22.6719 0.471769C22.6164 0.471769 22.5332 0.471769 22.4777 0.471769L21.0069 0.527269C20.9237 0.527269 20.8682 0.55502 20.7849 0.61052C20.7294 0.666021 20.6462 0.721521 20.6184 0.804772C20.5629 0.888023 20.5352 0.971273 20.4797 1.05452C20.4519 1.13778 20.4242 1.22103 20.3964 1.30428L19.3697 6.63233C19.3419 6.74333 19.3419 6.82658 19.3419 6.93758C19.3419 7.02083 19.3697 7.10408 19.3974 7.15958C19.4252 7.21508 19.4529 7.27058 19.5084 7.29833C19.5639 7.32608 19.6472 7.35383 19.7304 7.35383C19.8137 7.35383 19.8692 7.32608 19.9247 7.27058C19.9802 7.21508 20.0634 7.15958 20.0912 7.07633C20.1467 6.99308 20.1744 6.90983 20.2299 6.82658C20.2577 6.74333 20.2854 6.66008 20.3132 6.57683L20.5629 5.24481C20.5907 5.16156 20.6184 5.07831 20.6739 5.05056C20.7294 4.99506 20.7849 4.96731 20.8404 4.93956C20.8959 4.91181 20.9792 4.88406 21.0347 4.88406C21.0902 4.88406 21.1457 4.85631 21.2012 4.85631L21.9504 4.82856C22.1447 4.82856 22.3389 4.77306 22.5054 4.71756C22.6997 4.63431 22.8662 4.52331 23.005 4.4123C23.1437 4.27355 23.2825 4.1348 23.3935 3.94055C23.5045 3.77405 23.5877 3.55205 23.6432 3.3578C23.6987 3.13579 23.7542 2.94154 23.782 2.74729C23.8375 2.55304 23.8652 2.33104 23.893 2.13678C23.9485 1.91478 23.9485 1.72053 23.9207 1.52628C23.893 1.33203 23.8375 1.16553 23.7542 1.02677C23.671 0.888023 23.56 0.777022 23.4212 0.693771C23.2825 0.61052 23.116 0.55502 22.9217 0.55502C22.8662 0.471769 22.7552 0.471769 22.6719 0.471769ZM21.5064 3.7463C21.4787 3.7463 21.4232 3.7463 21.3677 3.7463C21.2844 3.7463 21.2289 3.71855 21.1457 3.71855C21.0624 3.6908 21.0069 3.66305 20.9792 3.60755C20.9237 3.55205 20.9237 3.4688 20.9237 3.3578L21.2012 1.99803C21.2289 1.91478 21.2567 1.83153 21.3122 1.80378C21.3677 1.74828 21.4232 1.69278 21.4787 1.66503C21.5342 1.63728 21.6174 1.60953 21.6729 1.60953C21.7284 1.60953 21.7839 1.58178 21.8394 1.58178H22.2557C22.3389 1.58178 22.3944 1.58178 22.5054 1.58178C22.5887 1.58178 22.6997 1.60953 22.7552 1.63728C22.8384 1.66503 22.9217 1.72053 22.9494 1.80378C23.0049 1.88703 23.005 1.99803 23.005 2.10903C22.9217 2.55304 22.8107 2.99704 22.6997 3.44105C22.6997 3.4688 22.6719 3.4688 22.6719 3.49655C22.6442 3.5243 22.6442 3.55205 22.6164 3.5798C22.5887 3.6353 22.5054 3.66305 22.4222 3.6908C22.3389 3.71855 22.2557 3.71855 22.1447 3.7463C22.0337 3.7463 21.9504 3.77405 21.8394 3.77405C21.7284 3.77405 21.6452 3.77405 21.5897 3.77405C21.5342 3.7463 21.5064 3.7463 21.5064 3.7463ZM22.3112 1.74828C22.2834 1.74828 22.2834 1.74828 22.2557 1.74828H21.8394C21.7839 1.74828 21.7562 1.74828 21.7007 1.77603C21.6452 1.77603 21.5897 1.80378 21.5342 1.83153C21.4787 1.85928 21.4509 1.88703 21.3954 1.91478C21.3954 1.94253 21.3677 1.97028 21.3677 2.02578L21.0902 3.38555C21.0902 3.44105 21.0902 3.4688 21.0902 3.4688C21.1179 3.49655 21.1457 3.5243 21.2012 3.5243C21.2567 3.55205 21.3122 3.55205 21.3677 3.55205C21.4232 3.55205 21.4787 3.55205 21.5342 3.55205C21.5897 3.55205 21.6729 3.55205 21.7839 3.55205C21.8949 3.55205 21.9782 3.5243 22.0892 3.5243C22.1724 3.5243 22.2834 3.49655 22.3389 3.4688C22.4222 3.44105 22.4499 3.4133 22.4499 3.4133C22.4777 3.38555 22.4777 3.3578 22.5054 3.3578C22.5054 3.33005 22.5332 3.33004 22.5332 3.30229C22.6442 2.88604 22.7274 2.46979 22.8107 2.05353C22.8384 1.97028 22.8107 1.91478 22.7829 1.85928C22.7552 1.80378 22.6997 1.77603 22.6442 1.77603C22.5887 1.74828 22.5054 1.74828 22.4222 1.72053C22.4222 1.74828 22.3667 1.74828 22.3112 1.74828Z" fill="white"/>
<path d="M27.7502 3.55203C27.7502 3.60753 27.7225 3.66303 27.6948 3.74628C27.667 3.82953 27.6392 3.88503 27.6115 3.94053C27.5837 3.99603 27.5282 4.05153 27.4727 4.10703C27.4172 4.16253 27.3617 4.16253 27.3062 4.16253L26.5847 4.19028C26.5292 4.19028 26.5015 4.19028 26.4182 4.21803C26.3627 4.21803 26.3072 4.24578 26.2517 4.27353C26.1962 4.30128 26.1407 4.32903 26.0852 4.38453C26.0297 4.41228 26.002 4.46778 26.002 4.55103L25.78 5.6888C25.78 5.7443 25.78 5.7998 25.8077 5.8553C25.8355 5.88305 25.891 5.9108 25.9187 5.93855C25.9742 5.9663 26.0297 5.9663 26.0852 5.99405C26.1407 5.99405 26.1962 5.99405 26.224 5.99405L27.6392 5.93855C27.6947 5.93855 27.7502 5.9663 27.778 5.99405C27.8057 6.04955 27.8335 6.0773 27.8613 6.16055C27.8613 6.21605 27.889 6.2993 27.8613 6.3548C27.8613 6.43805 27.8613 6.49355 27.8335 6.54905C27.8335 6.60455 27.8057 6.66005 27.778 6.74331C27.7502 6.82656 27.7225 6.88206 27.6948 6.93756C27.667 6.99306 27.6115 7.04856 27.556 7.10406C27.5005 7.15956 27.445 7.18731 27.3895 7.18731L24.892 7.21506C24.8087 7.21506 24.7255 7.18731 24.67 7.13181C24.6145 7.07631 24.5867 7.02081 24.559 6.93756C24.5312 6.85431 24.5312 6.77106 24.5312 6.68781C24.5312 6.60455 24.5312 6.49355 24.559 6.4103L25.558 1.11C25.5857 1.02675 25.6135 0.943501 25.6412 0.8325C25.669 0.74925 25.7245 0.638249 25.78 0.554998C25.8355 0.471747 25.891 0.416246 25.9742 0.360746C26.0575 0.305245 26.1407 0.277495 26.224 0.277495L28.7493 0.194244C28.8048 0.194244 28.8603 0.221995 28.888 0.249745C28.9158 0.305245 28.9435 0.332996 28.9713 0.416246C28.9713 0.471747 28.999 0.554998 28.9713 0.610498C28.9713 0.693749 28.9713 0.74925 28.9435 0.80475C28.9435 0.860251 28.9158 0.915751 28.888 0.999002C28.8603 1.08225 28.8325 1.13775 28.8048 1.19325C28.777 1.24875 28.7215 1.30425 28.666 1.35976C28.6105 1.41526 28.555 1.41526 28.4995 1.44301L27.0842 1.49851C27.0287 1.49851 27.001 1.49851 26.9177 1.52626C26.8622 1.52626 26.8067 1.55401 26.7512 1.58176C26.6957 1.60951 26.6402 1.63726 26.5847 1.69276C26.5292 1.74826 26.5015 1.77601 26.5015 1.85926L26.3627 2.66402C26.3627 2.71952 26.3627 2.77502 26.3905 2.83052C26.4182 2.85827 26.446 2.88602 26.5015 2.91377C26.557 2.94152 26.6125 2.94152 26.668 2.96927C26.7235 2.96927 26.779 2.96927 26.8067 2.96927L27.5282 2.94152C27.5837 2.94152 27.6392 2.96927 27.667 2.99702C27.6947 3.05252 27.7225 3.08027 27.7225 3.16352C27.7225 3.21902 27.7225 3.30227 27.7225 3.35777C27.7503 3.44103 27.7502 3.49653 27.7502 3.55203Z" fill="white"/>
<path d="M24.8642 7.29833C24.7532 7.29833 24.67 7.27058 24.5867 7.21508C24.5312 7.15958 24.4757 7.07633 24.448 6.99308C24.4202 6.90983 24.4202 6.79883 24.4202 6.71557C24.4202 6.63232 24.4202 6.52132 24.448 6.43807L25.4747 1.11002C25.5025 1.02677 25.5302 0.915771 25.558 0.83252C25.5857 0.721519 25.6412 0.638268 25.6967 0.555017C25.7522 0.471767 25.8355 0.388516 25.9187 0.333015C26.002 0.277515 26.113 0.222014 26.224 0.222014L28.7493 0.138763C28.8603 0.138763 28.9435 0.194264 28.9713 0.222014C28.999 0.277515 29.0545 0.333015 29.0545 0.416266C29.0823 0.499517 29.0823 0.555017 29.0823 0.638268C29.0823 0.721519 29.0823 0.777019 29.0545 0.83252C29.0545 0.88802 29.0268 0.971271 28.999 1.02677C28.9713 1.11002 28.9435 1.16552 28.888 1.24877C28.8325 1.33202 28.8048 1.38752 28.7493 1.44303C28.6938 1.49853 28.6105 1.52628 28.5273 1.52628L27.112 1.58178C27.0843 1.58178 27.0288 1.58178 26.9732 1.60953C26.9177 1.60953 26.8622 1.63728 26.8067 1.66503C26.7512 1.69278 26.7235 1.72053 26.668 1.74828C26.6402 1.77603 26.6125 1.80378 26.6125 1.85928L26.446 2.71954C26.446 2.74729 26.446 2.80279 26.446 2.80279C26.4737 2.83054 26.5015 2.85829 26.5292 2.85829C26.557 2.88604 26.6125 2.88604 26.668 2.88604C26.7235 2.88604 26.779 2.88604 26.8067 2.88604L27.5283 2.85829C27.6393 2.85829 27.7225 2.91379 27.7503 2.94154C27.8058 2.99704 27.8335 3.05254 27.8335 3.13579C27.8335 3.19129 27.8613 3.27454 27.8335 3.35779C27.8335 3.44104 27.8335 3.49654 27.8058 3.55205C27.8058 3.60755 27.778 3.66305 27.7503 3.7463C27.7225 3.82955 27.6948 3.88505 27.667 3.9683C27.6393 4.05155 27.5838 4.10705 27.5283 4.16255C27.4728 4.21805 27.3895 4.2458 27.3063 4.2458L26.5847 4.27355C26.557 4.27355 26.5015 4.27355 26.446 4.3013C26.3905 4.3013 26.335 4.32905 26.2795 4.3568C26.224 4.38455 26.1962 4.4123 26.1407 4.44005C26.113 4.44005 26.0852 4.49555 26.0852 4.5233L25.8632 5.66106C25.8632 5.68881 25.8632 5.74432 25.8632 5.74432C25.891 5.77207 25.9187 5.79982 25.9465 5.79982C25.9742 5.82757 26.0297 5.82757 26.0852 5.82757C26.1407 5.82757 26.1685 5.82757 26.224 5.82757L27.6393 5.77207C27.7503 5.77207 27.8335 5.82757 27.8613 5.85532C27.889 5.91082 27.9445 5.96632 27.9445 6.04957C27.9445 6.13282 27.9723 6.18832 27.9723 6.27157C27.9723 6.35482 27.9723 6.41032 27.9445 6.46582C27.9445 6.52132 27.9168 6.60457 27.889 6.66007C27.8613 6.74332 27.8335 6.79882 27.778 6.88208C27.7225 6.96533 27.6948 7.02083 27.6393 7.07633C27.5838 7.13183 27.5005 7.15958 27.4173 7.15958L24.8642 7.29833ZM28.7493 0.277515L26.224 0.360765C26.1407 0.360765 26.0852 0.388516 26.002 0.444016C25.9465 0.499517 25.8632 0.555017 25.8355 0.638268C25.78 0.721519 25.7522 0.80477 25.6967 0.88802C25.669 0.971271 25.6412 1.05452 25.6135 1.13777L24.5867 6.46582C24.559 6.54907 24.559 6.63232 24.559 6.71557C24.559 6.79883 24.559 6.88208 24.5867 6.93758C24.6145 6.99308 24.6422 7.04858 24.67 7.10408C24.6977 7.13183 24.7532 7.15958 24.8365 7.15958L27.3618 7.07633C27.4173 7.07633 27.445 7.04858 27.4728 7.02083C27.5283 6.99308 27.556 6.93758 27.5838 6.88208C27.6115 6.82658 27.6393 6.77107 27.667 6.68782C27.6948 6.63232 27.6948 6.57682 27.7225 6.52132C27.7225 6.46582 27.7503 6.41032 27.7503 6.35482C27.7503 6.29932 27.7503 6.24382 27.7503 6.18832C27.7503 6.13282 27.7225 6.10507 27.6948 6.07732C27.6948 6.04957 27.667 6.04957 27.6115 6.04957L26.1962 6.10507C26.1407 6.10507 26.0852 6.10507 26.0297 6.10507C25.9742 6.10507 25.891 6.07732 25.8355 6.04957C25.78 6.02182 25.7245 5.99407 25.6967 5.93857C25.6412 5.88307 25.6412 5.79982 25.6412 5.71657L25.8632 4.5788C25.891 4.49555 25.9187 4.4123 25.9742 4.38455C26.0297 4.32905 26.0852 4.3013 26.1407 4.27355C26.1962 4.2458 26.2795 4.21805 26.335 4.21805C26.3905 4.21805 26.446 4.1903 26.5015 4.1903L27.223 4.16255C27.2785 4.16255 27.3063 4.1348 27.334 4.10705C27.3895 4.0793 27.4173 4.0238 27.445 3.9683C27.4728 3.9128 27.5005 3.8573 27.5283 3.77405C27.556 3.71855 27.556 3.66305 27.5838 3.60755C27.5838 3.55205 27.6115 3.49654 27.6115 3.44104C27.6115 3.38554 27.6115 3.30229 27.6115 3.27454C27.6115 3.21904 27.5838 3.19129 27.556 3.16354C27.556 3.13579 27.5283 3.13579 27.4728 3.13579L26.8067 3.05254C26.7512 3.05254 26.6957 3.05254 26.6402 3.05254C26.5847 3.05254 26.5015 3.02479 26.446 2.99704C26.3905 2.96929 26.335 2.94154 26.3072 2.88604C26.2517 2.83054 26.2517 2.74729 26.2517 2.66404L26.4182 1.80378C26.446 1.72053 26.4737 1.66503 26.5292 1.60953C26.5847 1.55403 26.6402 1.52628 26.6957 1.49853C26.7512 1.47078 26.8345 1.44303 26.89 1.44303C27.001 1.38752 27.0565 1.38752 27.0843 1.38752L28.4995 1.33202C28.555 1.33202 28.5828 1.30427 28.6105 1.27652C28.666 1.24877 28.6938 1.19327 28.7215 1.13777C28.7493 1.08227 28.777 1.02677 28.8048 0.943521C28.8325 0.88802 28.8325 0.80477 28.8603 0.777019C28.8603 0.721519 28.888 0.666018 28.888 0.610518C28.888 0.555017 28.888 0.499517 28.888 0.416266C28.888 0.360765 28.8603 0.333015 28.8325 0.305265C28.8325 0.305265 28.8048 0.277515 28.7493 0.277515Z" fill="white"/>
<path d="M31.1913 4.52329C31.1635 4.52329 31.108 4.52329 31.0525 4.52329C30.997 4.52329 30.9415 4.55104 30.886 4.55104C30.8305 4.57879 30.775 4.60654 30.7473 4.63429C30.7195 4.66204 30.6918 4.71755 30.664 4.77305L30.3865 6.24381C30.3588 6.32706 30.331 6.41031 30.3033 6.52131C30.2755 6.60456 30.22 6.71556 30.1645 6.77106C30.109 6.85431 30.0535 6.90982 29.9703 6.96532C29.887 7.02082 29.8038 7.04857 29.7205 7.04857C29.6095 7.04857 29.5263 7.02082 29.443 6.99307C29.3875 6.96532 29.332 6.90982 29.3043 6.82656C29.2765 6.74331 29.2488 6.66006 29.2488 6.57681C29.2488 6.46581 29.2488 6.38256 29.2765 6.27156L30.3033 0.94351C30.331 0.860259 30.3588 0.777008 30.3865 0.666007C30.4143 0.582757 30.4698 0.471756 30.5253 0.416255C30.5808 0.333004 30.6363 0.277504 30.7195 0.222003C30.8028 0.166503 30.886 0.138752 30.9693 0.138752L32.5511 0.083252C32.6066 0.083252 32.6621 0.083252 32.7176 0.083252C32.7731 0.083252 32.8286 0.083252 32.8841 0.083252C33.0783 0.083252 33.2726 0.111002 33.4113 0.194253C33.5778 0.277504 33.6888 0.388505 33.7998 0.527256C33.9108 0.666007 33.9663 0.832509 33.9941 1.02676C34.0218 1.22101 34.0496 1.41526 33.9941 1.63727C33.9941 1.69277 33.9663 1.74827 33.9663 1.83152C33.9663 1.88702 33.9386 1.97027 33.9386 2.02577C33.9108 2.16452 33.8831 2.33102 33.8276 2.52527C33.7998 2.69178 33.7443 2.88603 33.6888 3.05253C33.6333 3.21903 33.5501 3.38553 33.4668 3.55203C33.3836 3.71854 33.2726 3.85729 33.1616 3.96829C33.1338 3.99604 33.1061 4.02379 33.0783 4.05154C33.0506 4.07929 32.9951 4.13479 32.9673 4.16254C32.9396 4.19029 32.8841 4.24579 32.8563 4.27354C32.8286 4.30129 32.8008 4.35679 32.8008 4.38454C32.8008 4.38454 32.8008 4.41229 32.8008 4.46779C32.8008 4.49554 32.8008 4.52329 32.8008 4.52329L33.0783 6.10506C33.0783 6.16056 33.1061 6.18831 33.0783 6.24381C33.0783 6.29931 33.0783 6.35481 33.0506 6.41031C33.0506 6.46581 33.0228 6.54906 32.9951 6.60456C32.9673 6.66006 32.9396 6.71556 32.9118 6.77106C32.8841 6.82656 32.8286 6.88206 32.7731 6.90982C32.7176 6.93757 32.6621 6.96532 32.5788 6.96532C32.3846 6.96532 32.2181 6.90982 32.1071 6.79881C31.9961 6.68781 31.9406 6.52131 31.9128 6.32706L31.6631 4.8008C31.6631 4.7453 31.6353 4.68979 31.5798 4.66204C31.5521 4.63429 31.4966 4.60654 31.441 4.57879C31.3855 4.55104 31.33 4.55104 31.2745 4.52329C31.3023 4.52329 31.2468 4.52329 31.1913 4.52329ZM32.9118 1.60952C32.9118 1.55402 32.8841 1.49852 32.8563 1.47076C32.8008 1.44301 32.7731 1.41526 32.6898 1.38751C32.6343 1.35976 32.5788 1.35976 32.4956 1.35976C32.4401 1.35976 32.3846 1.35976 32.3291 1.35976H31.8573C31.8296 1.35976 31.7741 1.35976 31.7186 1.38751C31.6631 1.38751 31.6075 1.41526 31.552 1.44301C31.4965 1.47076 31.441 1.49852 31.3855 1.55402C31.33 1.60952 31.3023 1.63727 31.3023 1.72052L31.0525 3.02478C31.0525 3.08028 31.0525 3.13578 31.0803 3.16353C31.108 3.19128 31.1358 3.24678 31.1913 3.24678C31.2468 3.27453 31.3023 3.27453 31.3578 3.30228C31.4133 3.30228 31.4688 3.30228 31.4965 3.30228L32.0238 3.27453C32.0793 3.27453 32.1348 3.27453 32.1903 3.27453C32.2458 3.27453 32.3013 3.24678 32.3568 3.24678C32.4123 3.21903 32.4678 3.19128 32.5233 3.16353C32.5788 3.13578 32.6066 3.08028 32.6343 3.02478V3.05253C32.6898 2.94153 32.7176 2.83053 32.7453 2.69178C32.7731 2.58078 32.8008 2.44202 32.8286 2.33102C32.8563 2.22002 32.8563 2.10902 32.8841 1.97027C32.8841 1.83152 32.9118 1.72052 32.9118 1.60952Z" fill="white"/>
<path d="M29.7205 7.15957C29.6095 7.15957 29.4985 7.13182 29.443 7.10407C29.3598 7.04857 29.3043 6.99306 29.2488 6.90981C29.221 6.82656 29.1933 6.71556 29.1933 6.60456C29.1933 6.49356 29.1933 6.38256 29.221 6.27156L30.2478 0.943509C30.2755 0.860258 30.3033 0.749257 30.331 0.666006C30.3588 0.555005 30.4143 0.471754 30.4698 0.388504C30.5253 0.305253 30.6085 0.222002 30.6918 0.166502C30.775 0.111001 30.886 0.0555005 30.997 0.0555005L32.5788 0C32.6343 0 32.6898 0 32.7453 0C32.8008 0 32.8563 0 32.9118 0C33.1338 0 33.3281 0.0277503 33.4946 0.111001C33.6611 0.194252 33.7998 0.333003 33.9108 0.471754C34.0218 0.638256 34.0773 0.804757 34.1328 0.999009C34.1606 1.19326 34.1883 1.41526 34.1328 1.63727C34.1328 1.69277 34.1051 1.77602 34.1051 1.83152C34.1051 1.88702 34.0773 1.97027 34.0773 2.02577C34.0496 2.16452 34.0218 2.33102 33.9663 2.52527C33.9386 2.69178 33.8831 2.88603 33.8276 3.05253C33.7721 3.21903 33.6888 3.41328 33.6056 3.57978C33.5223 3.74628 33.4113 3.88504 33.2726 4.02379L33.1893 4.10704C33.1616 4.13479 33.1061 4.16254 33.0783 4.21804C33.0506 4.24579 33.0228 4.30129 32.9951 4.32904C32.9673 4.35679 32.9673 4.38454 32.9673 4.41229C32.9673 4.41229 32.9673 4.44004 32.9673 4.46779C32.9673 4.49554 32.9673 4.49554 32.9673 4.49554V4.52329L33.2448 6.10506C33.2448 6.16056 33.2726 6.21606 33.2448 6.27156C33.2448 6.32706 33.2171 6.38256 33.2171 6.43806C33.2171 6.52131 33.1893 6.57681 33.1616 6.63231C33.1338 6.68781 33.1061 6.77106 33.0506 6.82656C32.9951 6.88206 32.9396 6.93756 32.8841 6.99306C32.8286 7.04857 32.7453 7.04856 32.662 7.04856C32.44 7.04856 32.2458 6.99306 32.1348 6.85431C32.0238 6.71556 31.9405 6.54906 31.9128 6.32706L31.663 4.80079C31.663 4.74529 31.6353 4.71754 31.6075 4.68979C31.5798 4.66204 31.5243 4.63429 31.4965 4.60654C31.441 4.57879 31.3855 4.57879 31.33 4.57879C31.2745 4.57879 31.219 4.57879 31.1635 4.57879C31.1358 4.57879 31.0803 4.57879 31.0525 4.57879C30.997 4.57879 30.9693 4.60654 30.9138 4.60654C30.8583 4.63429 30.8305 4.63429 30.8028 4.66204C30.775 4.68979 30.775 4.71754 30.7473 4.74529L30.4698 6.21606C30.442 6.29931 30.4143 6.41031 30.3865 6.49356C30.3588 6.60456 30.3033 6.68781 30.2478 6.77106C30.1923 6.85431 30.109 6.93756 30.0258 6.99306C29.9425 7.13182 29.8593 7.15957 29.7205 7.15957ZM32.6898 0.166502C32.6621 0.166502 32.6343 0.166502 32.6065 0.166502L31.0248 0.222002C30.9415 0.222002 30.886 0.249752 30.8028 0.305253C30.7473 0.360753 30.664 0.416254 30.6363 0.499505C30.5808 0.582755 30.553 0.666006 30.4975 0.749257C30.4698 0.832508 30.442 0.915758 30.4143 0.999009L29.3875 6.32706C29.3598 6.43806 29.3598 6.52131 29.3598 6.63231C29.3598 6.71556 29.3875 6.79881 29.4153 6.85431C29.443 6.90981 29.4708 6.96531 29.5263 6.99306C29.5818 7.02082 29.665 7.04856 29.7483 7.04856C29.8315 7.04856 29.887 7.02081 29.9703 6.96531C30.0258 6.90981 30.109 6.85431 30.1368 6.77106C30.1923 6.68781 30.22 6.60456 30.2755 6.52131C30.3033 6.43806 30.331 6.35481 30.3588 6.27156L30.6363 4.80079C30.664 4.71754 30.6918 4.66204 30.7473 4.60654C30.8028 4.57879 30.8583 4.52329 30.9138 4.52329C30.9693 4.49554 31.0248 4.49554 31.0803 4.49554C31.1358 4.49554 31.1913 4.49554 31.219 4.49554C31.2745 4.49554 31.33 4.49554 31.4133 4.49554C31.4688 4.49554 31.552 4.52329 31.6075 4.55104C31.663 4.57879 31.7463 4.60654 31.774 4.66204C31.8295 4.71754 31.8573 4.77304 31.885 4.8563L32.1348 6.38256C32.1625 6.57681 32.218 6.71556 32.329 6.82656C32.4123 6.93756 32.551 6.96531 32.7176 6.96531C32.7731 6.96531 32.8286 6.93756 32.8563 6.93756C32.9118 6.90981 32.9396 6.88206 32.9673 6.82656C32.9951 6.77106 33.0228 6.71556 33.0506 6.66006C33.0783 6.60456 33.0783 6.54906 33.1061 6.46581C33.1061 6.41031 33.1338 6.35481 33.1338 6.29931C33.1338 6.24381 33.1338 6.21606 33.1338 6.18831L32.8563 4.60654C32.8563 4.57879 32.8563 4.57879 32.8286 4.52329C32.8286 4.46779 32.8286 4.44004 32.8286 4.41229C32.8286 4.35679 32.8563 4.32904 32.9118 4.27354C32.9396 4.21804 32.9673 4.19029 33.0228 4.13479C33.0506 4.10704 33.1061 4.05154 33.1338 4.02379L33.2171 3.94054C33.3281 3.82954 33.4391 3.69078 33.5223 3.55203C33.6056 3.38553 33.6611 3.21903 33.7166 3.05253C33.7721 2.88603 33.8276 2.71953 33.8553 2.52527C33.8831 2.35877 33.9386 2.19227 33.9663 2.02577C33.9663 1.97027 33.9941 1.88702 33.9941 1.83152C33.9941 1.77602 34.0218 1.72052 34.0218 1.66502C34.0496 1.47076 34.0496 1.27651 34.0218 1.08226C33.9941 0.888008 33.9108 0.749257 33.8276 0.610506C33.7443 0.471754 33.6333 0.360753 33.4668 0.305253C33.3281 0.222002 33.1616 0.194252 32.9673 0.194252C32.9118 0.194252 32.8563 0.194252 32.8008 0.194252C32.7453 0.166502 32.7176 0.166502 32.6898 0.166502ZM31.4688 3.38553C31.441 3.38553 31.3855 3.38553 31.33 3.38553C31.2745 3.38553 31.219 3.35778 31.1358 3.33003C31.0803 3.30228 31.0248 3.24678 30.997 3.21903C30.9693 3.19128 30.9415 3.10803 30.9693 2.99703L31.219 1.69277C31.2468 1.60951 31.2745 1.55401 31.33 1.49851C31.3855 1.44301 31.441 1.41526 31.4965 1.38751C31.552 1.35976 31.6353 1.33201 31.6908 1.33201C31.7463 1.33201 31.8018 1.30426 31.8573 1.30426H32.329C32.3845 1.30426 32.44 1.30426 32.4955 1.30426C32.551 1.30426 32.6343 1.30426 32.6898 1.33201C32.7453 1.35976 32.8008 1.35976 32.8563 1.41526L32.9673 0.804757V1.60951C32.9673 1.72052 32.9673 1.85927 32.9396 1.97027C32.9118 2.08127 32.9118 2.22002 32.8841 2.33102C32.8563 2.46977 32.8286 2.58077 32.8008 2.69177C32.7731 2.80278 32.7453 2.94153 32.6898 3.05253C32.6621 3.10803 32.6066 3.16353 32.5511 3.21903C32.4955 3.27453 32.44 3.30228 32.3568 3.30228C32.3013 3.33003 32.218 3.33003 32.1625 3.35778C32.107 3.35778 32.0515 3.35778 31.996 3.35778L31.4688 3.38553ZM32.4123 1.44301C32.3845 1.44301 32.3568 1.44301 32.329 1.44301H31.8573C31.8295 1.44301 31.774 1.44301 31.7185 1.47076C31.663 1.47076 31.6075 1.49851 31.552 1.52626C31.4965 1.55401 31.4688 1.58176 31.4133 1.60951C31.3855 1.63727 31.3578 1.66502 31.3578 1.72052L31.108 3.02478C31.108 3.08028 31.108 3.10803 31.108 3.10803C31.1358 3.13578 31.1635 3.16353 31.1913 3.19128C31.219 3.21903 31.2745 3.21903 31.33 3.21903C31.3855 3.21903 31.441 3.21903 31.4688 3.21903L31.996 3.19128C32.0515 3.19128 32.0793 3.19128 32.1348 3.19128C32.1903 3.19128 32.2458 3.16353 32.3013 3.16353C32.3568 3.13578 32.3845 3.13578 32.44 3.08028C32.4678 3.05253 32.4955 3.02478 32.5233 2.96928L32.5511 2.94153C32.5788 2.85828 32.6065 2.74728 32.6343 2.66402C32.6621 2.55302 32.6898 2.41427 32.7176 2.30327C32.7453 2.19227 32.7453 2.08127 32.7731 1.97027C32.7731 1.88702 32.8008 1.80377 32.8008 1.72052V1.63727C32.8008 1.58176 32.7731 1.55401 32.7731 1.55401C32.7453 1.52626 32.6898 1.49851 32.662 1.49851C32.6065 1.49851 32.551 1.47076 32.4955 1.47076C32.4678 1.44301 32.44 1.44301 32.4123 1.44301Z" fill="white"/>
</g>
<defs>
<clipPath id="clip0_1_5">
<rect width="97.9584" height="56" fill="white"/>
</clipPath>
</defs>
</svg>
